<?xml version="1.0" standalone="no"?>
<!DOCTYPE svg PUBLIC "-//W3C//DTD SVG 20010904//EN"
 "http://www.w3.org/TR/2001/REC-SVG-20010904/DTD/svg10.dtd">
<svg version="1.0" xmlns="http://www.w3.org/2000/svg"
 width="474.000000pt" height="474.000000pt" viewBox="0 0 474.000000 474.000000"
 preserveAspectRatio="xMidYMid meet">
<metadata>
Created by potrace 1.14, written by Peter Selinger 2001-2017
</metadata>
<g transform="translate(0.000000,474.000000) scale(0.100000,-0.100000)"
fill="#000000" stroke="none">
<path d="M2759 4270 c-228 -198 -415 -365 -417 -370 -2 -6 83 -10 222 -10
l226 0 -6 -32 c-65 -366 -273 -752 -545 -1013 -373 -357 -849 -533 -1339 -494
-74 6 -138 13 -142 15 -13 8 -48 -35 -42 -51 13 -32 327 -112 526 -134 140
-16 398 -13 535 4 520 69 982 296 1324 653 257 267 421 573 502 937 l24 110
194 5 194 5 -197 173 c-109 94 -287 249 -395 344 -109 94 -210 182 -224 195
l-26 24 -414 -361z"/>
<path d="M3695 3713 c-58 -251 -180 -512 -345 -739 l-60 -83 2 -858 3 -858
215 0 215 0 3 1308 c1 719 -2 1307 -6 1307 -5 0 -17 -35 -27 -77z"/>
<path d="M3039 2634 c-37 -40 -203 -163 -301 -223 l-88 -54 0 -593 0 -594 215
0 215 0 0 745 c0 410 -4 745 -8 745 -5 0 -19 -12 -33 -26z"/>
<path d="M2372 2230 c-43 -20 -227 -79 -317 -103 l-50 -13 0 -469 0 -470 215
0 215 0 3 538 c2 426 0 537 -10 536 -7 0 -32 -9 -56 -19z"/>
<path d="M712 1683 l3 -508 215 0 215 0 3 456 2 457 -97 17 c-54 10 -151 33
-216 51 -65 19 -121 34 -123 34 -2 0 -3 -228 -2 -507z"/>
<path d="M1620 2068 c-63 -4 -148 -5 -187 -2 l-73 6 0 -451 0 -451 215 0 215
0 0 455 0 455 -27 -1 c-16 -1 -80 -6 -143 -11z"/>
</g>
</svg>
